<svg baseProfile="full" xmlns="http://www.w3.org/2000/svg" height="18" width="19"><path opacity=".5" fill="#fff" d="M17.535 15.29l-3.885-3.886c.74-1.153 1.174-2.52 1.174-3.992C14.824 3.318 11.504 0 7.412 0 3.318 0 0 3.318 0 7.412c0 4.093 3.318 7.412 7.412 7.412 1.47 0 2.84-.435 3.992-1.174l3.885 3.885c.31.31.715.465 1.122.465.406 0 .813-.155 1.123-.465.62-.62.62-1.626 0-2.246zM2.118 7.41c0-2.92 2.375-5.294 5.294-5.294 2.92 0 5.294 2.375 5.294 5.294 0 2.92-2.375 5.294-5.294 5.294-2.92 0-5.294-2.375-5.294-5.294z"/></svg>