<svg baseProfile="full" xmlns="http://www.w3.org/2000/svg" height="18" width="19"><path opacity=".5" d="M17.535 15.289l-3.885-3.885c.739-1.153 1.174-2.521 1.174-3.992 0-4.094-3.319-7.412-7.412-7.412-4.094 0-7.412 3.318-7.412 7.412 0 4.093 3.318 7.412 7.412 7.412 1.471 0 2.839-.435 3.992-1.174l3.885 3.885c.31.31.716.465 1.123.465.406 0 .813-.155 1.123-.465.62-.62.62-1.626 0-2.246zm-15.417-7.877c0-2.919 2.375-5.294 5.294-5.294 2.919 0 5.294 2.375 5.294 5.294 0 2.919-2.375 5.294-5.294 5.294-2.919 0-5.294-2.375-5.294-5.294z"/></svg>